<svg width="122" height="31" viewBox="0 0 122 31" fill="none" xmlns="http://www.w3.org/2000/svg">
<g clip-path="url(#clip0)">
<path d="M33.0521 29.8888L32.4726 29.0436L28.8987 23.8579L21.1292 12.5809L32.4545 0H24.5702L17.5553 7.66688L12.8526 12.8103L17.7304 19.7709L25.0532 30.1483H33.2332L33.0521 29.8888Z" fill="#1F084C"/>
<path fill-rule="evenodd" clip-rule="evenodd" d="M10.2567 0.0120697V23.3085H9.13989C8.79578 22.3788 7.90835 21.7087 6.85189 21.7087C5.80147 21.7087 4.90197 22.3788 4.55787 23.3085H3.44707V0.0120697H10.2567Z" fill="#7625F8"/>
<path fill-rule="evenodd" clip-rule="evenodd" d="M0 17.7727V30.5287H13.7038V17.7727H0ZM6.8519 26.5805C5.50567 26.5805 4.41298 25.4939 4.41298 24.1477C4.41298 23.8518 4.46732 23.5741 4.55787 23.3085C4.90197 22.3788 5.79544 21.7087 6.8519 21.7087C7.90232 21.7087 8.79578 22.3788 9.13989 23.3085C9.23648 23.5681 9.29081 23.8518 9.29081 24.1477C9.29081 25.4939 8.19813 26.5805 6.8519 26.5805Z" fill="#7625F8"/>
<path d="M59.699 0.169037V5.85581H43.4235V12.4481H58.0449V18.1349H43.4235V24.86H60.1699V30.5468H36.5656V0.169037H59.699Z" fill="#1F084C"/>
<path d="M88.6823 0.169037V5.85581H72.4128V12.4481H87.0342V18.1349H72.4128V24.86H89.1592V30.5468H65.5549V0.169037H88.6823Z" fill="#1F084C"/>
<path d="M101.39 0.169037V12.8405H115.142V0.169037H122V30.5408H115.142V18.5695H101.39V30.5468H94.5381V0.169037H101.39Z" fill="#1F084C"/>
</g>
<defs>
<clipPath id="clip0">
<rect width="122" height="30.5408" fill="white"/>
</clipPath>
</defs>
</svg>
